HIERARCHY
ROOT Hips
{
  OFFSET 150.432 88.1888 27.0678
  CHANNELS 6 Xposition Yposition Zposition Zrotation Xrotation Yrotation
  JOINT RightUpLeg
  {
    OFFSET -9.25679 -1.50405 0.000749919
    CHANNELS 3 Zrotation Xrotation Yrotation
    JOINT RightLeg
    {
      OFFSET 0.0460649 -41.9017 0.109432
      CHANNELS 3 Zrotation Xrotation Yrotation
      JOINT RightFoot
      {
        OFFSET 1.7988 -41.6468 0.413135
        CHANNELS 3 Zrotation Xrotation Yrotation
        End Site
        {
          OFFSET 0 -7.69 17.5
        }
      }
    }
  }
  JOINT LeftUpLeg
  {
    OFFSET 9.37007 -1.70178 -0.0772456
    CHANNELS 3 Zrotation Xrotation Yrotation
    JOINT LeftLeg
    {
      OFFSET 0.225295 -41.8622 -0.102498
      CHANNELS 3 Zrotation Xrotation Yrotation
      JOINT LeftFoot
      {
        OFFSET -2.07126 -41.2817 -1.22305
        CHANNELS 3 Zrotation Xrotation Yrotation
        End Site
        {
          OFFSET 0 -7.69 17.5
        }
      }
    }
  }
  JOINT Spine
  {
    OFFSET 0.0614897 14.2979 0.0172263
    CHANNELS 3 Zrotation Xrotation Yrotation
    JOINT Spine1
    {
      OFFSET 0.0253415 9.71429 0.00919728
      CHANNELS 3 Zrotation Xrotation Yrotation
      JOINT Spine2
      {
        OFFSET -0.0163533 10.1275 0.00641818
        CHANNELS 3 Zrotation Xrotation Yrotation
        JOINT Spine3
        {
          OFFSET 0.00964153 9.71178 0.018187
          CHANNELS 3 Zrotation Xrotation Yrotation
          JOINT Neck
          {
            OFFSET -0.0402277 10.3749 0.0917408
            CHANNELS 3 Zrotation Xrotation Yrotation
            JOINT Head
            {
              OFFSET 0.0121048 9.49481 0.108971
              CHANNELS 3 Zrotation Xrotation Yrotation
              End Site
              {
                OFFSET 0 15.95 0
              }
            }
          }
          JOINT RightShoulder
          {
            OFFSET -3.18208 6.946 0.015457
            CHANNELS 3 Zrotation Xrotation Yrotation
            JOINT RightArm
            {
              OFFSET -12.7708 0.0386499 -0.00729584
              CHANNELS 3 Zrotation Xrotation Yrotation
              JOINT RightForeArm
              {
                OFFSET -26.422 0.00272702 0.0331834
                CHANNELS 3 Zrotation Xrotation Yrotation
                JOINT RightHand
                {
                  OFFSET -25.9963 -0.0318335 0.00677283
                  CHANNELS 3 Zrotation Xrotation Yrotation
                  JOINT RightHandThumb1
                  {
                    OFFSET -2.48905 0.190105 3.12053
                    CHANNELS 3 Zrotation Xrotation Yrotation
                    JOINT RightHandThumb2
                    {
                      OFFSET -3.68274 0 0
                      CHANNELS 3 Zrotation Xrotation Yrotation
                      JOINT RightHandThumb3
                      {
                        OFFSET -2.55832 0 0
                        CHANNELS 3 Zrotation Xrotation Yrotation
                        End Site
                        {
                          OFFSET -2.194 0 0
                        }
                      }
                    }
                  }
                  JOINT RightInHandIndex
                  {
                    OFFSET -3.22368 0.508421 1.97842
                    CHANNELS 3 Zrotation Xrotation Yrotation
                    JOINT RightHandIndex1
                    {
                      OFFSET -5.21684 -0.091368 0.999158
                      CHANNELS 3 Zrotation Xrotation Yrotation
                      JOINT RightHandIndex2
                      {
                        OFFSET -3.61937 0 0
                        CHANNELS 3 Zrotation Xrotation Yrotation
                        JOINT RightHandIndex3
                        {
                          OFFSET -2.0521 0 0
                          CHANNELS 3 Zrotation Xrotation Yrotation
                          End Site
                          {
                            OFFSET -1.805 0 0
                          }
                        }
                      }
                    }
                  }
                  JOINT RightInHandMiddle
                  {
                    OFFSET -3.38211 0.517263 0.756737
                    CHANNELS 3 Zrotation Xrotation Yrotation
                    JOINT RightHandMiddle1
                    {
                      OFFSET -5.17411 -0.084 0.313895
                      CHANNELS 3 Zrotation Xrotation Yrotation
                      JOINT RightHandMiddle2
                      {
                        OFFSET -3.94947 0 0
                        CHANNELS 3 Zrotation Xrotation Yrotation
                        JOINT RightHandMiddle3
                        {
                          OFFSET -2.47579 0 0
                          CHANNELS 3 Zrotation Xrotation Yrotation
                          End Site
                          {
                            OFFSET -1.975 0 0
                          }
                        }
                      }
                    }
                  }
                  JOINT RightInHandRing
                  {
                    OFFSET -3.36516 0.537895 -0.128947
                    CHANNELS 3 Zrotation Xrotation Yrotation
                    JOINT RightHandRing1
                    {
                      OFFSET -4.63474 -0.022105 -0.478947
                      CHANNELS 3 Zrotation Xrotation Yrotation
                      JOINT RightHandRing2
                      {
                        OFFSET -3.44238 0 0
                        CHANNELS 3 Zrotation Xrotation Yrotation
                        JOINT RightHandRing3
                        {
                          OFFSET -2.3881 0 0
                          CHANNELS 3 Zrotation Xrotation Yrotation
                          End Site
                          {
                            OFFSET -1.857 0 0
                          }
                        }
                      }
                    }
                  }
                  JOINT RightInHandPinky
                  {
                    OFFSET -3.16105 0.469368 -1.20179
                    CHANNELS 3 Zrotation Xrotation Yrotation
                    JOINT RightHandPinky1
                    {
                      OFFSET -4.14105 -0.022105 -1.09053
                      CHANNELS 3 Zrotation Xrotation Yrotation
                      JOINT RightHandPinky2
                      {
                        OFFSET -2.75653 0 0
                        CHANNELS 3 Zrotation Xrotation Yrotation
                        JOINT RightHandPinky3
                        {
                          OFFSET -1.74189 0 0
                          CHANNELS 3 Zrotation Xrotation Yrotation
                          End Site
                          {
                            OFFSET -1.645 0 0
                          }
                        }
                      }
                    }
                  }
                }
              }
            }
          }
          JOINT LeftShoulder
          {
            OFFSET 3.18966 6.92856 0.062398
            CHANNELS 3 Zrotation Xrotation Yrotation
            JOINT LeftArm
            {
              OFFSET 12.7601 -0.0509086 0.00275124
              CHANNELS 3 Zrotation Xrotation Yrotation
              JOINT LeftForeArm
              {
                OFFSET 26.4828 -0.0571091 -0.0285564
                CHANNELS 3 Zrotation Xrotation Yrotation
                JOINT LeftHand
                {
                  OFFSET 25.9994 -0.0171136 -0.0547064
                  CHANNELS 3 Zrotation Xrotation Yrotation
                  JOINT LeftHandThumb1
                  {
                    OFFSET 2.48905 0.190105 3.12053
                    CHANNELS 3 Zrotation Xrotation Yrotation
                    JOINT LeftHandThumb2
                    {
                      OFFSET 3.68274 0 0
                      CHANNELS 3 Zrotation Xrotation Yrotation
                      JOINT LeftHandThumb3
                      {
                        OFFSET 2.55832 0 0
                        CHANNELS 3 Zrotation Xrotation Yrotation
                        End Site
                        {
                          OFFSET 2.194 0 0
                        }
                      }
                    }
                  }
                  JOINT LeftInHandIndex
                  {
                    OFFSET 3.22368 0.508421 1.97842
                    CHANNELS 3 Zrotation Xrotation Yrotation
                    JOINT LeftHandIndex1
                    {
                      OFFSET 5.21684 -0.091368 0.999158
                      CHANNELS 3 Zrotation Xrotation Yrotation
                      JOINT LeftHandIndex2
                      {
                        OFFSET 3.61937 0 0
                        CHANNELS 3 Zrotation Xrotation Yrotation
                        JOINT LeftHandIndex3
                        {
                          OFFSET 2.0521 0 0
                          CHANNELS 3 Zrotation Xrotation Yrotation
                          End Site
                          {
                            OFFSET 1.805 0 0
                          }
                        }
                      }
                    }
                  }
                  JOINT LeftInHandMiddle
                  {
                    OFFSET 3.38211 0.517263 0.756737
                    CHANNELS 3 Zrotation Xrotation Yrotation
                    JOINT LeftHandMiddle1
                    {
                      OFFSET 5.17411 -0.084 0.313895
                      CHANNELS 3 Zrotation Xrotation Yrotation
                      JOINT LeftHandMiddle2
                      {
                        OFFSET 3.94947 0 0
                        CHANNELS 3 Zrotation Xrotation Yrotation
                        JOINT LeftHandMiddle3
                        {
                          OFFSET 2.47579 0 0
                          CHANNELS 3 Zrotation Xrotation Yrotation
                          End Site
                          {
                            OFFSET 1.975 0 0
                          }
                        }
                      }
                    }
                  }
                  JOINT LeftInHandRing
                  {
                    OFFSET 3.36516 0.537895 -0.128947
                    CHANNELS 3 Zrotation Xrotation Yrotation
                    JOINT LeftHandRing1
                    {
                      OFFSET 4.63474 -0.022105 -0.478947
                      CHANNELS 3 Zrotation Xrotation Yrotation
                      JOINT LeftHandRing2
                      {
                        OFFSET 3.44238 0 0
                        CHANNELS 3 Zrotation Xrotation Yrotation
                        JOINT LeftHandRing3
                        {
                          OFFSET 2.3881 0 0
                          CHANNELS 3 Zrotation Xrotation Yrotation
                          End Site
                          {
                            OFFSET 1.857 0 0
                          }
                        }
                      }
                    }
                  }
                  JOINT LeftInHandPinky
                  {
                    OFFSET 3.16105 0.469368 -1.20179
                    CHANNELS 3 Zrotation Xrotation Yrotation
                    JOINT LeftHandPinky1
                    {
                      OFFSET 4.14105 -0.022105 -1.09053
                      CHANNELS 3 Zrotation Xrotation Yrotation
                      JOINT LeftHandPinky2
                      {
                        OFFSET 2.75653 0 0
                        CHANNELS 3 Zrotation Xrotation Yrotation
                        JOINT LeftHandPinky3
                        {
                          OFFSET 1.74189 0 0
                          CHANNELS 3 Zrotation Xrotation Yrotation
                          End Site
                          {
                            OFFSET 1.645 0 0
                          }
                        }
                      }
                    }
                  }
                }
              }
            }
          }
        }
      }
    }
  }
}
MOTION
Frames: 3
Frame Time: 0.00833333
1.500003813912511532e+02 -7.839224674249342011e-04 5.475436660587868452e-03 2.374744691526646957e-03 5.184716541374216961e-03 2.334517740363881155e-02 -4.661249953383999473e-02 -2.415178653955917659e-03 -6.541704292728740822e-02 1.577527987959665562e-02 2.126136347216646058e-02 2.657244019749543593e-02 -1.982106241066642488e-02 -1.825191890573129097e-02 -2.358207917618375740e-02 -1.501517855442876560e-02 -5.661991584115923931e-03 -7.715091106981368518e-03 7.452793932882294074e-03 -1.527323120824494729e-02 -1.362630328835793235e-02 8.390777757477039514e-04 1.303904502088991044e-02 -6.708692278527610305e-03 -5.181580629405717515e-03 5.852949147898443144e-03 2.089014030988865442e-02 -8.350302178529408256e-04 3.328934042291650190e-03 5.183039713787753258e-03 -1.486248786853966875e-03 6.193685258321863021e-03 8.289537517166814182e-03 1.826109407754645392e-03 1.971964747249316339e-04 -3.054061373771229954e-03 1.827603893411273907e-03 1.622171532265491336e-04 -3.049784691888044082e-03 3.294197966963650914e-02 -8.434533728711756870e-03 -5.523071981445819290e-02 -3.314877348526155260e-02 -3.319439844773806447e-03 6.474303990022362010e-02 -6.468339557725924505e-02 -9.434381938779659582e-02 6.591183883722566417e-02 -6.142498754954651974e-02 3.763113254910735450e-01 -2.784105869751796192e-01 2.495196833849755436e-02 -3.362270702275607093e-01 1.267622768252473775e-01 0.000000000000000000e+00 0.000000000000000000e+00 0.000000000000000000e+00 -5.885582425630341709e-15 -2.686797210680491833e-15 0.000000000000000000e+00 4.620771414754701418e-15 4.273008584734858176e-15 0.000000000000000000e+00 -2.644531345789533957e-15 -3.865066961774071720e-15 2.752788256221378378e-16 0.000000000000000000e+00 0.000000000000000000e+00 0.000000000000000000e+00 0.000000000000000000e+00 -1.914043669777816899e-16 4.700678259120484788e-15 0.000000000000000000e+00 2.332356079053944571e-15 3.666671619031138968e-15 -2.644531345789533957e-15 -3.865066961774071720e-15 2.752788256221378378e-16 0.000000000000000000e+00 1.495837585719261982e-15 7.551129533443114551e-15 0.000000000000000000e+00 -1.198848194029095710e-15 1.855054418773042511e-16 0.000000000000000000e+00 -1.336741493073515320e-15 4.680137772447700658e-16 -2.644531345789533957e-15 -3.865066961774071720e-15 2.752788256221378378e-16 0.000000000000000000e+00 0.000000000000000000e+00 0.000000000000000000e+00 0.000000000000000000e+00 3.449788456326726265e-15 5.848548700575439897e-16 0.000000000000000000e+00 1.099258933624505871e-15 2.507268282093728280e-16 -2.644531345789533957e-15 -3.865066961774071720e-15 2.752788256221378378e-16 0.000000000000000000e+00 0.000000000000000000e+00 0.000000000000000000e+00 0.000000000000000000e+00 -1.917502832543702875e-16 -3.499455015161658288e-16 0.000000000000000000e+00 -1.115559401337760664e-16 -4.718451522173563940e-15 -1.029705765911875445e-02 -6.492634571235695630e-03 -5.205508784163063226e-04 -3.602248122929866542e-02 -6.881462187375958148e-03 5.092860772940278197e-02 1.479342025342512690e+00 -1.801296035382250749e-02 1.527143768035268856e+00 9.131673581237268258e-03 1.619891190228392175e-01 7.882921619561314430e-02 0.000000000000000000e+00 0.000000000000000000e+00 0.000000000000000000e+00 -3.885632494191680299e-16 6.752497866182352971e-15 0.000000000000000000e+00 1.355898178665847411e-15 1.101885937306382557e-15 0.000000000000000000e+00 1.651438926702743904e-15 7.985238613807986026e-15 8.622323526426319494e-16 0.000000000000000000e+00 0.000000000000000000e+00 0.000000000000000000e+00 0.000000000000000000e+00 -3.541545179295227931e-15 -2.305135424001449076e-15 0.000000000000000000e+00 -4.162477982524324243e-15 5.893904202218353205e-15 1.651438926702743904e-15 7.985238613807986026e-15 8.622323526426319494e-16 0.000000000000000000e+00 -1.118931756255591939e-15 -3.003322591388605411e-15 0.000000000000000000e+00 1.262124832615467941e-15 -2.660768534380538210e-15 0.000000000000000000e+00 5.629891827936095449e-15 -5.046847399726184044e-15 1.651438926702743904e-15 7.985238613807986026e-15 8.622323526426319494e-16 0.000000000000000000e+00 0.000000000000000000e+00 0.000000000000000000e+00 0.000000000000000000e+00 -2.346443981870628227e-15 7.168806159029740262e-15 0.000000000000000000e+00 -2.392153703610707629e-15 2.555146971118573869e-16 1.651438926702743904e-15 7.985238613807986026e-15 8.622323526426319494e-16 0.000000000000000000e+00 0.000000000000000000e+00 0.000000000000000000e+00 0.000000000000000000e+00 -1.836212081446473828e-15 -2.047750040166896725e-15 0.000000000000000000e+00 -6.750267991372892796e-15 2.558267937946330826e-15
1.499915856710454705e+02 1.727583841673889761e-05 4.998618076666290315e-03 -1.247268183449371827e-02 -2.750281232912937020e-03 -3.402475463348031415e-02 3.576387269008661496e-02 9.028682772497451103e-03 3.352139221043193978e-02 3.010587474483065670e-02 2.886007750642710992e-02 8.806955833722593385e-02 -3.724441439892782479e-02 -3.617320750544006369e-02 -7.777946746479237616e-02 6.149939845892700603e-03 2.144183711497870196e-02 4.552282436959043110e-03 -1.260637514078506195e-02 1.015500285991354293e-02 1.587413801046721681e-02 -3.922419533566765356e-05 -1.511272040540139958e-02 4.553494167332481149e-03 9.142960128202481940e-03 3.528060378519270470e-04 -2.364526632253135044e-02 1.894228339180563381e-03 -2.046213297658395179e-03 -5.956557056743349947e-03 3.229025581482313206e-03 -4.293693698771723112e-03 -9.556311098244054877e-03 -1.067738779394565964e-03 -2.875540169477157782e-04 2.502282329960265478e-03 -1.069777118352720907e-03 -2.965367392398366841e-04 2.507648537240450819e-03 -1.943404326837695414e-02 -1.299840416030205274e-02 4.552003126573821168e-02 6.291377049332962969e-03 3.195908231378372100e-03 -3.317685083756420628e-02 8.183797107900703249e-02 5.175503740353529225e-02 -6.081028364717507712e-02 -9.130966363547761422e-02 -1.297096119687488391e+00 4.696641905809246786e-01 -1.958622775181782516e-01 1.207700593722563109e+00 -5.361711803953407296e-01 0.000000000000000000e+00 0.000000000000000000e+00 0.000000000000000000e+00 -9.410576809933711771e-15 -4.116539484488997723e-15 0.000000000000000000e+00 -3.055044780877555659e-15 5.477035273512809064e-15 0.000000000000000000e+00 -7.526683816880040492e-15 1.898173419080489542e-15 1.131882762928013602e-16 0.000000000000000000e+00 0.000000000000000000e+00 0.000000000000000000e+00 0.000000000000000000e+00 -3.809379219525513308e-15 -2.653677955252797315e-15 0.000000000000000000e+00 7.561807225354416479e-15 5.462734016268285981e-15 -7.526683816880040492e-15 1.898173419080489542e-15 1.131882762928013602e-16 0.000000000000000000e+00 1.450463703214390493e-15 7.458866372928106051e-15 0.000000000000000000e+00 -3.082712125473302704e-15 -4.037023067009543199e-15 0.000000000000000000e+00 -1.867017881946932874e-15 -2.624193610062107700e-15 -7.526683816880040492e-15 1.898173419080489542e-15 1.131882762928013602e-16 0.000000000000000000e+00 0.000000000000000000e+00 0.000000000000000000e+00 0.000000000000000000e+00 2.653921594575383440e-15 3.935762356261671247e-15 0.000000000000000000e+00 3.963798303123214461e-15 -6.559191258949669337e-15 -7.526683816880040492e-15 1.898173419080489542e-15 1.131882762928013602e-16 0.000000000000000000e+00 0.000000000000000000e+00 0.000000000000000000e+00 0.000000000000000000e+00 9.349147994593941776e-16 -4.739555341320086245e-15 0.000000000000000000e+00 9.927915703436453815e-16 -1.007327666631192704e-14 -4.086438768635894045e-03 -2.027837411535257910e-03 -1.129828642380507550e-02 4.777420742880960497e-02 2.570203820023025942e-02 -3.649712150490301912e-04 4.771268369684359967e-01 -5.138555106329174837e-02 4.748147123378528289e-01 -1.027721516232938809e-01 2.287590432776623883e-01 -2.385863475280858726e-03 0.000000000000000000e+00 0.000000000000000000e+00 0.000000000000000000e+00 4.112111161163290051e-15 1.513549237008826536e-14 0.000000000000000000e+00 -7.154260623431815817e-15 7.254380380028023580e-16 0.000000000000000000e+00 2.479611812772771147e-17 1.254828515414232154e-14 -1.670620877902178997e-15 0.000000000000000000e+00 0.000000000000000000e+00 0.000000000000000000e+00 0.000000000000000000e+00 1.444656277552274548e-14 -4.966197701870406302e-15 0.000000000000000000e+00 -7.252322282945754592e-16 9.081236398538171995e-15 2.479611812772771147e-17 1.254828515414232154e-14 -1.670620877902178997e-15 0.000000000000000000e+00 -1.220121694357506521e-14 -1.076435089945135405e-14 0.000000000000000000e+00 -1.558663092446141512e-15 -1.235751522715828297e-14 0.000000000000000000e+00 1.162420897958650415e-14 -2.584677371174305546e-15 2.479611812772771147e-17 1.254828515414232154e-14 -1.670620877902178997e-15 0.000000000000000000e+00 0.000000000000000000e+00 0.000000000000000000e+00 0.000000000000000000e+00 -4.148938184619553149e-15 1.722879680260553659e-14 0.000000000000000000e+00 -1.276816004512244973e-15 -1.174625122768893583e-14 2.479611812772771147e-17 1.254828515414232154e-14 -1.670620877902178997e-15 0.000000000000000000e+00 0.000000000000000000e+00 0.000000000000000000e+00 0.000000000000000000e+00 -1.417232531899125530e-15 -6.011908383973584478e-15 0.000000000000000000e+00 2.575393299797618842e-16 1.826795834017615801e-14
1.499912283818317462e+02 2.072823152744581853e-03 1.319786711905391067e-03 -1.633475983073396504e-02 -7.253185864758185733e-03 -5.266360094396661112e-02 6.881037439914657050e-02 1.046672361618844471e-02 8.436584817759032462e-02 5.793958109687959851e-02 3.977857190949074528e-02 1.255632064601414077e-01 -5.907450252580801614e-02 -5.106157779735127217e-02 -1.340227036445624242e-01 1.485422608238190327e-02 2.058926680018391756e-02 5.105762329294373687e-03 -1.785716186674843331e-02 2.685587141086587595e-02 3.014510169221766567e-02 -4.697795399975245902e-04 -2.870412909235804319e-02 1.358814364603800479e-02 8.739018926149958247e-03 -4.026745541916437916e-03 -3.535837605010812984e-02 1.510171124472979489e-03 -4.052886173030094061e-03 -8.988719374333742004e-03 2.725359832045731907e-03 -8.013183992375740722e-03 -1.452604221573059948e-02 -1.596468063334231932e-03 -4.407342540522252465e-04 4.569811669659102488e-03 -1.596899037183373065e-03 -4.288625126399741054e-04 4.574960794500078018e-03 -2.890282068110363103e-02 -9.750007065907543083e-03 8.293776246983007583e-02 4.310823393683128890e-02 5.686128211809433203e-03 -1.093305623888532613e-01 1.161422500594192914e-01 1.432991651902872365e-01 -8.616909605577952047e-02 -8.631118504867688057e-02 -1.200369814747811015e+00 4.332120001553339539e-01 -1.613587389184069354e-01 1.101145362774090364e+00 -4.077045756170123991e-01 0.000000000000000000e+00 0.000000000000000000e+00 0.000000000000000000e+00 -8.867069582096939027e-15 -2.111704144827244611e-15 0.000000000000000000e+00 4.638384736353419647e-15 -1.257940045731965335e-14 0.000000000000000000e+00 -7.194081198338456317e-15 1.370101316554822044e-15 -2.978561197289712864e-16 0.000000000000000000e+00 0.000000000000000000e+00 0.000000000000000000e+00 0.000000000000000000e+00 8.291428588301109324e-15 5.780264336746887297e-15 0.000000000000000000e+00 -1.691170215526519282e-15 5.453264240706657273e-16 -7.194081198338456317e-15 1.370101316554822044e-15 -2.978561197289712864e-16 0.000000000000000000e+00 -1.687112440022502524e-15 1.706451914457825367e-15 0.000000000000000000e+00 -3.231902105999677606e-15 -1.911160423547641598e-15 0.000000000000000000e+00 -2.416367078165358410e-15 -4.695748975329517473e-15 -7.194081198338456317e-15 1.370101316554822044e-15 -2.978561197289712864e-16 0.000000000000000000e+00 0.000000000000000000e+00 0.000000000000000000e+00 0.000000000000000000e+00 6.576363007159691012e-15 -2.074575257929531947e-15 0.000000000000000000e+00 -5.169026230107235375e-16 2.009049712941693308e-15 -7.194081198338456317e-15 1.370101316554822044e-15 -2.978561197289712864e-16 0.000000000000000000e+00 0.000000000000000000e+00 0.000000000000000000e+00 0.000000000000000000e+00 -1.177433636799598821e-15 -5.722633748450766895e-15 0.000000000000000000e+00 -1.754174263843493513e-15 -2.440219683123340629e-15 6.068245374533996588e-03 -6.026417684468716790e-04 -1.396415919470028570e-02 6.158122182773967390e-02 3.423141791993740413e-02 -2.955663656962287389e-02 -4.673741666790826033e-01 -6.010857544084388659e-02 -4.941083440904342483e-01 -1.268254405452374778e-01 1.747927700404050544e-01 -7.325101711704588847e-02 0.000000000000000000e+00 0.000000000000000000e+00 0.000000000000000000e+00 8.703325691703604437e-15 -7.225018301340746730e-15 0.000000000000000000e+00 -9.060717948707547463e-15 -2.967177298415539267e-15 0.000000000000000000e+00 -1.174036430640391065e-15 1.001678348019451220e-14 1.784778533183994125e-15 0.000000000000000000e+00 0.000000000000000000e+00 0.000000000000000000e+00 0.000000000000000000e+00 3.895581964019979685e-15 -4.345289655908533584e-15 0.000000000000000000e+00 -2.962270507685632401e-16 1.460946026401292567e-14 -1.174036430640391065e-15 1.001678348019451220e-14 1.784778533183994125e-15 0.000000000000000000e+00 -1.049952014979126172e-14 -5.067663408340640720e-15 0.000000000000000000e+00 -4.352931867602056880e-15 -1.571264987443377799e-14 0.000000000000000000e+00 1.381342890374810842e-15 1.284570684287371616e-14 -1.174036430640391065e-15 1.001678348019451220e-14 1.784778533183994125e-15 0.000000000000000000e+00 0.000000000000000000e+00 0.000000000000000000e+00 0.000000000000000000e+00 -5.912370756727921054e-15 -1.109505073435777904e-14 0.000000000000000000e+00 2.991552542781315493e-15 -4.208390899218881341e-15 -1.174036430640391065e-15 1.001678348019451220e-14 1.784778533183994125e-15 0.000000000000000000e+00 0.000000000000000000e+00 0.000000000000000000e+00 0.000000000000000000e+00 -4.370985810347296427e-15 -4.937877688533906055e-15 0.000000000000000000e+00 -8.186137237864599912e-15 2.074174956081405469e-15
